<?xml version="1.0" encoding="UTF-8" standalone="no"?>
<svg xmlns="http://www.w3.org/2000/svg" version="1.1" xmlns:xlink="http://www.w3.org/1999/xlink" xmlns:svgjs="http://svgjs.dev/svgjs" width="1000" height="1000" viewBox="0 0 1000 1000"><g transform="matrix(1,0,0,1,-0.14221556886212738,-0.14221556886229791)"><svg viewBox="0 0 334 334" data-background-color="#ffffff" preserveAspectRatio="xMidYMid meet" height="1000" width="1000" xmlns="http://www.w3.org/2000/svg" xmlns:xlink="http://www.w3.org/1999/xlink"><g id="tight-bounds" transform="matrix(1,0,0,1,0.04749999999998522,0.04750000000001364)"><svg viewBox="0 0 333.90454557049503 333.90454557049503" height="333.90454557049503" width="333.90454557049503"><g><svg></svg></g><g><svg viewBox="0 0 333.90454557049503 333.90454557049503" height="333.90454557049503" width="333.90454557049503"><g><path d="M0 166.952c0-92.205 74.747-166.952 166.952-166.952 92.205 0 166.952 74.747 166.953 166.952 0 92.205-74.747 166.952-166.953 166.953-92.205 0-166.952-74.747-166.952-166.953zM166.952 316.63c82.665 0 149.677-67.013 149.678-149.678 0-82.665-67.013-149.677-149.678-149.677-82.665 0-149.677 67.013-149.677 149.677 0 82.665 67.013 149.677 149.677 149.678z" data-fill-palette-color="tertiary" fill="#ea3c12" stroke="transparent"></path><ellipse rx="160.27418187383762" ry="160.27418187383762" cx="166.95227278524752" cy="166.95227278524752" fill="#ea3c12" stroke="transparent" stroke-width="0" fill-opacity="1" data-fill-palette-color="tertiary"></ellipse></g><g transform="matrix(1,0,0,1,82.50407603890035,71.17305217166896)"><svg viewBox="0 0 168.89639349269433 191.55844122715712" height="191.55844122715712" width="168.89639349269433"><g><svg viewBox="0 0 168.89639349269433 191.55844122715712" height="191.55844122715712" width="168.89639349269433"><g><svg viewBox="0 0 168.89639349269433 191.55844122715712" height="191.55844122715712" width="168.89639349269433"><g><svg viewBox="0 0 168.89639349269433 191.55844122715712" height="191.55844122715712" width="168.89639349269433"><g id="textblocktransform"><svg viewBox="0 0 168.89639349269433 191.55844122715712" height="191.55844122715712" width="168.89639349269433" id="textblock"><g><svg viewBox="0 0 168.89639349269433 191.55844122715712" height="191.55844122715712" width="168.89639349269433"><g transform="matrix(1,0,0,1,0,0)"><svg width="168.89639349269433" viewBox="4.320000171661377 -32.66999816894531 28.93000030517578 32.81999969482422" height="191.55844122715712" data-palette-color="#ffffff"><path d="M10.79-20.58L10.79 0.15Q9.62 0 6.27 0L6.27 0 4.32 0 4.32-32.57Q5.88-32.47 7.76-32.47 9.64-32.47 10.42-32.67L10.42-32.67 18.63-18.73 26.51-32.67Q27.29-32.47 29.49-32.47 31.69-32.47 33.25-32.57L33.25-32.57 33.25 0 31.3 0Q27.95 0 26.78 0.15L26.78 0.15 26.78-21.73 18.8-7.45 10.79-20.58Z" opacity="1" transform="matrix(1,0,0,1,0,0)" fill="#ffffff" class="wordmark-text-0" data-fill-palette-color="quaternary" id="text-0"></path></svg></g></svg></g></svg></g></svg></g><g></g></svg></g></svg></g></svg></g></svg></g><defs></defs></svg><rect width="333.90454557049503" height="333.90454557049503" fill="none" stroke="none" visibility="hidden"></rect></g></svg></g></svg>